<svg xmlns="http://www.w3.org/2000/svg" xmlns:xlink="http://www.w3.org/1999/xlink" width="1080" zoomAndPan="magnify" viewBox="0 0 810 809.999993" height="1080" preserveAspectRatio="xMidYMid meet" version="1.2"><defs><clipPath id="74de9c36f4"><path d="M 405 0 C 181.324219 0 0 181.324219 0 405 C 0 628.675781 181.324219 810 405 810 C 628.675781 810 810 628.675781 810 405 C 810 181.324219 628.675781 0 405 0 Z M 405 0 "/></clipPath><clipPath id="31decd2659"><path d="M 405 0 C 181.324219 0 0 181.324219 0 405 C 0 628.675781 181.324219 810 405 810 C 628.675781 810 810 628.675781 810 405 C 810 181.324219 628.675781 0 405 0 Z M 405 0 "/></clipPath><clipPath id="f28eb46be0"><rect x="0" width="810" y="0" height="810"/></clipPath></defs><g id="689cff67f7"><g clip-rule="nonzero" clip-path="url(#74de9c36f4)"><g transform="matrix(1,0,0,1,0,0.000000000000039746)"><g clip-path="url(#f28eb46be0)"><g clip-rule="nonzero" clip-path="url(#31decd2659)"><rect x="0" width="810" height="810" y="0" style="fill:#ffffff;fill-opacity:1;stroke:none;"/></g></g></g></g><g style="fill:#000000;fill-opacity:1;"><g transform="translate(91.450012, 583.310191)"><path style="stroke:none" d="M 136.109375 5.9375 C 97.828125 5.9375 69.363281 -4.207031 50.71875 -24.5 C 32.082031 -44.789062 22.101562 -77.046875 20.78125 -121.265625 L 96.515625 -132.640625 C 96.835938 -107.234375 99.882812 -89.003906 105.65625 -77.953125 C 111.4375 -66.898438 120.101562 -61.375 131.65625 -61.375 C 146.5 -61.375 153.921875 -71.109375 153.921875 -90.578125 C 153.921875 -106.078125 150.375 -119.4375 143.28125 -130.65625 C 136.1875 -141.875 125.050781 -153.921875 109.875 -166.796875 L 75.234375 -196.984375 C 58.078125 -211.503906 44.796875 -226.929688 35.390625 -243.265625 C 25.984375 -259.597656 21.28125 -278.984375 21.28125 -301.421875 C 21.28125 -335.078125 31.257812 -360.976562 51.21875 -379.125 C 71.1875 -397.269531 98.660156 -406.34375 133.640625 -406.34375 C 171.578125 -406.34375 197.390625 -395.285156 211.078125 -373.171875 C 224.773438 -351.066406 232.117188 -324.179688 233.109375 -292.515625 L 156.890625 -283.109375 C 156.234375 -303.890625 154.335938 -318.816406 151.203125 -327.890625 C 148.066406 -336.960938 141.21875 -341.5 130.65625 -341.5 C 123.070312 -341.5 117.21875 -338.28125 113.09375 -331.84375 C 108.96875 -325.414062 106.90625 -318.242188 106.90625 -310.328125 C 106.90625 -296.796875 109.957031 -285.410156 116.0625 -276.171875 C 122.164062 -266.929688 131.984375 -256.375 145.515625 -244.5 L 178.671875 -215.296875 C 198.472656 -198.472656 213.816406 -180.65625 224.703125 -161.84375 C 235.585938 -143.039062 241.03125 -120.769531 241.03125 -95.03125 C 241.03125 -76.21875 236.65625 -59.140625 227.90625 -43.796875 C 219.164062 -28.453125 206.875 -16.328125 191.03125 -7.421875 C 175.195312 1.484375 156.890625 5.9375 136.109375 5.9375 Z M 136.109375 5.9375 "/></g></g><g style="fill:#000000;fill-opacity:1;"><g transform="translate(345.848769, 583.310191)"><path style="stroke:none" d="M 25.234375 -286.078125 L 104.4375 -286.078125 L 104.4375 -263.3125 C 123.570312 -282.113281 146.171875 -291.515625 172.234375 -291.515625 C 183.785156 -291.515625 193.765625 -288.628906 202.171875 -282.859375 C 210.585938 -277.085938 216.941406 -268.59375 221.234375 -257.375 C 241.359375 -280.132812 265.613281 -291.515625 294 -291.515625 C 310.820312 -291.515625 324.265625 -285.328125 334.328125 -272.953125 C 344.390625 -260.578125 349.421875 -243.671875 349.421875 -222.234375 L 349.421875 0 L 270.234375 0 L 270.234375 -213.8125 C 270.234375 -221.726562 268.832031 -227.414062 266.03125 -230.875 C 263.226562 -234.34375 259.019531 -236.078125 253.40625 -236.078125 C 249.78125 -236.078125 245.488281 -235.171875 240.53125 -233.359375 C 235.582031 -231.546875 230.96875 -228.988281 226.6875 -225.6875 L 226.6875 0 L 148.484375 0 L 148.484375 -213.8125 C 148.484375 -228.65625 142.707031 -236.078125 131.15625 -236.078125 C 123.570312 -236.078125 114.664062 -232.613281 104.4375 -225.6875 L 104.4375 0 L 25.234375 0 Z M 25.234375 -286.078125 "/></g></g></g></svg>