<?xml version="1.0" encoding="UTF-8"?>
<svg version="1.1" xmlns="http://www.w3.org/2000/svg" width="144" height="144">
<path d="M0 0 C2.57010839 1.41527958 3.97839749 2.81448377 6 5 C6.763125 4.360625 7.52625 3.72125 8.3125 3.0625 C12.79860652 -0.38032593 16.85056375 -0.38835681 22.328125 -0.359375 C25 0 25 0 28.125 2.375 C30.69285752 5.97000053 31.12405673 7.64051271 31.11352539 12.00048828 C31.11341209 13.56188034 31.11341209 13.56188034 31.11329651 15.15481567 C31.10813522 16.28192963 31.10297394 17.40904358 31.09765625 18.5703125 C31.0962413 19.72167694 31.09482635 20.87304138 31.09336853 22.05929565 C31.08775716 25.74788986 31.0752027 29.43642405 31.0625 33.125 C31.05748647 35.62109288 31.05292331 38.1171867 31.04882812 40.61328125 C31.03778403 46.74221073 31.02051173 52.87109518 31 59 C25.72 59 20.44 59 15 59 C14.67 43.49 14.34 27.98 14 12 C11.69 12.33 9.38 12.66 7 13 C7 28.18 7 43.36 7 59 C1.39 59 -4.22 59 -10 59 C-10.33 43.82 -10.66 28.64 -11 13 C-13.31 13 -15.62 13 -18 13 C-18 28.18 -18 43.36 -18 59 C-23.61 59 -29.22 59 -35 59 C-35 39.86 -35 20.72 -35 1 C-29.39 1 -23.78 1 -18 1 C-17.67 1.66 -17.34 2.32 -17 3 C-16.236875 2.505 -15.47375 2.01 -14.6875 1.5 C-9.71720832 -0.52181356 -5.29902716 -0.87924599 0 0 Z " fill="#000000" transform="translate(100,50)"/>
<path d="M0 0 C1.05828003 0.01571045 1.05828003 0.01571045 2.13793945 0.03173828 C7.76845395 0.22939205 10.87054967 0.58334636 15 4.4375 C19.3308027 10.65465748 20.71422586 15.93812846 20 23.4375 C18.00383446 25.43366554 14.18298037 24.84733427 11.4375 25 C10.37112305 25.06477539 10.37112305 25.06477539 9.28320312 25.13085938 C7.52238088 25.23721777 5.7612168 25.33788846 4 25.4375 C3.34 22.1375 2.68 18.8375 2 15.4375 C1.01 15.1075 0.02 14.7775 -1 14.4375 C-3.43291092 16.26218319 -3.96214622 17.1941543 -4.4375 20.25 C-3.41774122 27.67967108 2.70311948 32.18757997 8 36.9375 C15.17063277 43.367687 21.19881366 49.0665857 22.29296875 59.1328125 C22.64784538 66.63317806 21.41591447 72.28551361 17 78.4375 C11.28806671 83.51477404 4.91426444 84.7329493 -2.5 84.3125 C-8.86608201 83.55316151 -13.64209971 81.66794622 -18.3125 77.25 C-22.17024804 70.82041994 -23.4054918 64.87151634 -23 57.4375 C-21.27192682 57.09854344 -19.54248026 56.76658475 -17.8125 56.4375 C-16.84957031 56.251875 -15.88664062 56.06625 -14.89453125 55.875 C-12.2065794 55.46872388 -9.71228981 55.35816428 -7 55.4375 C-6.87882812 56.12457031 -6.75765625 56.81164062 -6.6328125 57.51953125 C-6.46523438 58.42058594 -6.29765625 59.32164063 -6.125 60.25 C-5.96257813 61.14332031 -5.80015625 62.03664062 -5.6328125 62.95703125 C-5.08811551 65.66477846 -5.08811551 65.66477846 -3 68.4375 C-0.41619823 68.68780977 -0.41619823 68.68780977 2 68.4375 C3.33694684 63.08971263 2.91979185 60.3499785 0.359375 55.515625 C-2.00400683 51.90263898 -5.12470883 49.2399164 -8.375 46.4375 C-22.51108836 34.1036221 -22.51108836 34.1036221 -23.203125 24.66796875 C-23.3245145 16.78776683 -22.85676279 11.92909897 -17.75 5.6875 C-12.23961101 1.17899992 -7.02842942 -0.10881217 0 0 Z " fill="#000000" transform="translate(36,26.5625)"/>
</svg>
