<svg xmlns="http://www.w3.org/2000/svg" xmlns:xlink="http://www.w3.org/1999/xlink" width="500" zoomAndPan="magnify" viewBox="0 0 375 374.999991" height="500" preserveAspectRatio="xMidYMid meet" version="1.0"><defs><clipPath id="eed084f8bb"><path d="M 73 71 L 246.511719 71 L 246.511719 275.5 L 73 275.5 Z M 73 71 " clip-rule="nonzero"/></clipPath></defs><rect x="-37.5" width="450" fill="#ffffff" y="-37.499999" height="449.999989" fill-opacity="1"/><rect x="-37.5" width="450" fill="#ffffff" y="-37.499999" height="449.999989" fill-opacity="1"/><path fill="#000000" d="M 369.15625 340.949219 L 267.289062 239.042969 C 269.035156 236.703125 270.710938 234.3125 272.3125 231.871094 C 273.914062 229.429688 275.433594 226.9375 276.878906 224.402344 C 278.324219 221.863281 279.6875 219.28125 280.972656 216.660156 C 282.253906 214.035156 283.457031 211.375 284.570312 208.679688 C 285.6875 205.980469 286.722656 203.25 287.667969 200.488281 C 288.613281 197.726562 289.472656 194.933594 290.246094 192.117188 C 291.019531 189.304688 291.703125 186.464844 292.296875 183.605469 C 292.890625 180.746094 293.394531 177.871094 293.8125 174.980469 C 294.226562 172.089844 294.550781 169.191406 294.785156 166.28125 C 295.019531 163.371094 295.160156 160.453125 295.214844 157.535156 C 295.265625 154.613281 295.226562 151.695312 295.09375 148.777344 C 294.964844 145.863281 294.742188 142.953125 294.429688 140.046875 C 294.117188 137.144531 293.714844 134.253906 293.222656 131.375 C 292.730469 128.496094 292.148438 125.636719 291.476562 122.796875 C 290.804688 119.953125 290.042969 117.136719 289.195312 114.339844 C 288.347656 111.546875 287.414062 108.78125 286.390625 106.046875 C 285.371094 103.308594 284.265625 100.609375 283.078125 97.941406 C 281.886719 95.273438 280.613281 92.648438 279.261719 90.058594 C 277.90625 87.472656 276.472656 84.929688 274.960938 82.433594 C 273.449219 79.933594 271.859375 77.484375 270.195312 75.085938 C 268.527344 72.6875 266.789062 70.34375 264.976562 68.054688 C 263.164062 65.765625 261.285156 63.535156 259.332031 61.363281 C 257.378906 59.191406 255.363281 57.082031 253.28125 55.035156 C 251.195312 52.988281 249.050781 51.007812 246.84375 49.097656 C 244.636719 47.183594 242.371094 45.34375 240.050781 43.574219 C 237.726562 41.800781 235.351562 40.105469 232.925781 38.484375 C 230.496094 36.859375 228.019531 35.316406 225.496094 33.847656 C 222.96875 32.382812 220.402344 30.996094 217.792969 29.6875 C 215.179688 28.378906 212.53125 27.15625 209.84375 26.015625 C 207.15625 24.875 204.433594 23.816406 201.679688 22.847656 C 198.925781 21.875 196.144531 20.988281 193.335938 20.191406 C 190.527344 19.394531 187.695312 18.6875 184.839844 18.066406 C 181.988281 17.445312 179.117188 16.914062 176.230469 16.472656 C 173.34375 16.03125 170.445312 15.679688 167.539062 15.421875 C 164.628906 15.160156 161.714844 14.992188 158.796875 14.914062 C 155.878906 14.835938 152.957031 14.847656 150.039062 14.953125 C 147.121094 15.058594 144.210938 15.253906 141.304688 15.539062 C 138.398438 15.824219 135.503906 16.203125 132.621094 16.667969 C 129.738281 17.136719 126.875 17.691406 124.027344 18.339844 C 121.175781 18.984375 118.351562 19.71875 115.550781 20.542969 C 112.75 21.367188 109.976562 22.273438 107.230469 23.269531 C 104.484375 24.265625 101.773438 25.347656 99.097656 26.511719 C 96.417969 27.679688 93.78125 28.925781 91.179688 30.257812 C 88.582031 31.589844 86.027344 33 83.515625 34.488281 C 81.003906 35.976562 78.542969 37.546875 76.128906 39.191406 C 73.714844 40.832031 71.355469 42.550781 69.046875 44.34375 C 66.742188 46.132812 64.496094 47.996094 62.304688 49.925781 C 60.113281 51.859375 57.988281 53.859375 55.921875 55.921875 C 53.859375 57.988281 51.859375 60.113281 49.925781 62.304688 C 47.996094 64.496094 46.132812 66.742188 44.34375 69.046875 C 42.550781 71.355469 40.832031 73.714844 39.1875 76.128906 C 37.546875 78.542969 35.976562 81.003906 34.488281 83.515625 C 33 86.027344 31.589844 88.582031 30.257812 91.179688 C 28.925781 93.78125 27.679688 96.417969 26.511719 99.097656 C 25.347656 101.773438 24.265625 104.484375 23.269531 107.230469 C 22.273438 109.976562 21.367188 112.75 20.542969 115.550781 C 19.71875 118.351562 18.984375 121.175781 18.339844 124.027344 C 17.691406 126.875 17.136719 129.738281 16.667969 132.621094 C 16.203125 135.503906 15.824219 138.398438 15.539062 141.304688 C 15.253906 144.210938 15.058594 147.121094 14.953125 150.039062 C 14.847656 152.957031 14.835938 155.878906 14.914062 158.796875 C 14.992188 161.714844 15.160156 164.628906 15.421875 167.539062 C 15.679688 170.445312 16.03125 173.34375 16.472656 176.230469 C 16.914062 179.117188 17.445312 181.988281 18.066406 184.839844 C 18.6875 187.695312 19.394531 190.527344 20.191406 193.335938 C 20.988281 196.144531 21.875 198.925781 22.847656 201.679688 C 23.816406 204.433594 24.875 207.15625 26.015625 209.84375 C 27.15625 212.53125 28.378906 215.179688 29.6875 217.792969 C 30.996094 220.402344 32.382812 222.96875 33.847656 225.496094 C 35.316406 228.019531 36.859375 230.496094 38.484375 232.925781 C 40.105469 235.351562 41.800781 237.726562 43.574219 240.050781 C 45.34375 242.371094 47.183594 244.636719 49.097656 246.84375 C 51.007812 249.050781 52.988281 251.195312 55.035156 253.28125 C 57.082031 255.363281 59.191406 257.378906 61.363281 259.332031 C 63.535156 261.285156 65.765625 263.164062 68.054688 264.976562 C 70.34375 266.789062 72.6875 268.527344 75.085938 270.195312 C 77.488281 271.859375 79.933594 273.449219 82.433594 274.960938 C 84.929688 276.472656 87.472656 277.90625 90.058594 279.261719 C 92.648438 280.613281 95.273438 281.886719 97.941406 283.078125 C 100.609375 284.265625 103.308594 285.371094 106.046875 286.390625 C 108.78125 287.414062 111.546875 288.347656 114.339844 289.195312 C 117.136719 290.042969 119.953125 290.804688 122.796875 291.476562 C 125.636719 292.148438 128.496094 292.730469 131.375 293.222656 C 134.253906 293.714844 137.144531 294.117188 140.046875 294.429688 C 142.953125 294.742188 145.863281 294.964844 148.777344 295.09375 C 151.695312 295.226562 154.613281 295.265625 157.535156 295.214844 C 160.453125 295.160156 163.371094 295.019531 166.28125 294.785156 C 169.191406 294.550781 172.089844 294.226562 174.980469 293.8125 C 177.871094 293.394531 180.746094 292.890625 183.605469 292.296875 C 186.464844 291.703125 189.304688 291.019531 192.117188 290.246094 C 194.933594 289.472656 197.726562 288.613281 200.488281 287.667969 C 203.25 286.722656 205.980469 285.6875 208.679688 284.570312 C 211.375 283.457031 214.035156 282.253906 216.660156 280.972656 C 219.28125 279.6875 221.863281 278.324219 224.402344 276.878906 C 226.9375 275.433594 229.429688 273.914062 231.871094 272.3125 C 234.3125 270.710938 236.703125 269.035156 239.042969 267.289062 L 340.949219 369.195312 C 341.414062 369.644531 341.902344 370.070312 342.40625 370.472656 C 342.914062 370.871094 343.4375 371.25 343.980469 371.601562 C 344.523438 371.949219 345.082031 372.273438 345.65625 372.570312 C 346.226562 372.867188 346.816406 373.132812 347.414062 373.375 C 348.015625 373.613281 348.625 373.824219 349.246094 374.003906 C 349.867188 374.183594 350.496094 374.332031 351.128906 374.453125 C 351.765625 374.570312 352.402344 374.660156 353.046875 374.714844 C 353.691406 374.773438 354.335938 374.800781 354.980469 374.792969 C 355.628906 374.789062 356.273438 374.75 356.914062 374.683594 C 357.554688 374.613281 358.195312 374.515625 358.828125 374.386719 C 359.460938 374.253906 360.085938 374.09375 360.703125 373.902344 C 361.320312 373.714844 361.925781 373.492188 362.519531 373.242188 C 363.117188 372.992188 363.699219 372.714844 364.269531 372.410156 C 364.835938 372.101562 365.390625 371.769531 365.925781 371.410156 C 366.460938 371.046875 366.980469 370.664062 367.480469 370.253906 C 367.976562 369.84375 368.457031 369.410156 368.914062 368.953125 C 369.371094 368.496094 369.804688 368.015625 370.214844 367.519531 C 370.625 367.019531 371.007812 366.503906 371.367188 365.964844 C 371.730469 365.429688 372.0625 364.875 372.367188 364.308594 C 372.675781 363.738281 372.953125 363.15625 373.203125 362.5625 C 373.453125 361.964844 373.671875 361.359375 373.863281 360.742188 C 374.054688 360.125 374.214844 359.5 374.34375 358.867188 C 374.476562 358.234375 374.574219 357.597656 374.644531 356.953125 C 374.710938 356.3125 374.75 355.667969 374.753906 355.019531 C 374.757812 354.375 374.734375 353.730469 374.675781 353.085938 C 374.621094 352.445312 374.53125 351.804688 374.414062 351.167969 C 374.292969 350.535156 374.144531 349.90625 373.964844 349.285156 C 373.785156 348.664062 373.574219 348.054688 373.335938 347.457031 C 373.09375 346.855469 372.828125 346.269531 372.53125 345.695312 C 372.234375 345.121094 371.910156 344.5625 371.558594 344.019531 C 371.210938 343.476562 370.832031 342.953125 370.429688 342.445312 C 370.03125 341.941406 369.605469 341.457031 369.15625 340.992188 Z M 55.851562 155.585938 C 55.851562 153.953125 55.890625 152.320312 55.972656 150.691406 C 56.050781 149.0625 56.171875 147.433594 56.332031 145.808594 C 56.492188 144.183594 56.691406 142.566406 56.929688 140.949219 C 57.171875 139.335938 57.449219 137.730469 57.765625 136.128906 C 58.085938 134.527344 58.445312 132.933594 58.839844 131.351562 C 59.238281 129.769531 59.671875 128.195312 60.144531 126.632812 C 60.621094 125.070312 61.132812 123.523438 61.679688 121.984375 C 62.230469 120.449219 62.816406 118.925781 63.441406 117.417969 C 64.066406 115.910156 64.730469 114.417969 65.425781 112.941406 C 66.125 111.46875 66.859375 110.011719 67.628906 108.570312 C 68.398438 107.132812 69.203125 105.710938 70.039062 104.3125 C 70.878906 102.910156 71.753906 101.53125 72.660156 100.175781 C 73.566406 98.820312 74.503906 97.484375 75.476562 96.171875 C 76.449219 94.863281 77.453125 93.578125 78.488281 92.316406 C 79.523438 91.054688 80.589844 89.816406 81.6875 88.609375 C 82.78125 87.398438 83.910156 86.214844 85.0625 85.0625 C 86.214844 83.910156 87.398438 82.78125 88.609375 81.6875 C 89.816406 80.589844 91.054688 79.523438 92.316406 78.488281 C 93.578125 77.453125 94.863281 76.449219 96.171875 75.476562 C 97.484375 74.503906 98.820312 73.566406 100.175781 72.660156 C 101.53125 71.753906 102.910156 70.878906 104.3125 70.039062 C 105.710938 69.203125 107.132812 68.398438 108.570312 67.628906 C 110.011719 66.859375 111.46875 66.125 112.941406 65.425781 C 114.417969 64.730469 115.910156 64.066406 117.417969 63.441406 C 118.925781 62.816406 120.449219 62.230469 121.984375 61.679688 C 123.523438 61.132812 125.070312 60.621094 126.632812 60.144531 C 128.195312 59.671875 129.769531 59.238281 131.351562 58.839844 C 132.933594 58.445312 134.527344 58.085938 136.128906 57.765625 C 137.730469 57.449219 139.335938 57.171875 140.949219 56.929688 C 142.566406 56.691406 144.183594 56.492188 145.808594 56.332031 C 147.433594 56.171875 149.0625 56.050781 150.691406 55.972656 C 152.320312 55.890625 153.953125 55.851562 155.585938 55.851562 C 157.21875 55.851562 158.847656 55.890625 160.480469 55.972656 C 162.109375 56.050781 163.738281 56.171875 165.359375 56.332031 C 166.984375 56.492188 168.605469 56.691406 170.21875 56.929688 C 171.832031 57.171875 173.441406 57.449219 175.042969 57.765625 C 176.644531 58.085938 178.234375 58.445312 179.820312 58.839844 C 181.402344 59.238281 182.972656 59.671875 184.535156 60.144531 C 186.097656 60.621094 187.648438 61.132812 189.183594 61.679688 C 190.722656 62.230469 192.242188 62.816406 193.75 63.441406 C 195.257812 64.066406 196.75 64.730469 198.226562 65.425781 C 199.703125 66.125 201.160156 66.859375 202.597656 67.628906 C 204.039062 68.398438 205.457031 69.203125 206.859375 70.039062 C 208.257812 70.878906 209.636719 71.753906 210.996094 72.660156 C 212.351562 73.566406 213.6875 74.503906 214.996094 75.476562 C 216.308594 76.449219 217.59375 77.453125 218.855469 78.488281 C 220.117188 79.523438 221.351562 80.589844 222.5625 81.6875 C 223.773438 82.78125 224.953125 83.910156 226.109375 85.0625 C 227.261719 86.214844 228.386719 87.398438 229.484375 88.609375 C 230.578125 89.816406 231.644531 91.054688 232.679688 92.316406 C 233.714844 93.578125 234.71875 94.863281 235.691406 96.171875 C 236.664062 97.484375 237.605469 98.820312 238.511719 100.175781 C 239.417969 101.53125 240.289062 102.910156 241.128906 104.3125 C 241.96875 105.710938 242.773438 107.132812 243.542969 108.570312 C 244.3125 110.011719 245.046875 111.46875 245.742188 112.941406 C 246.441406 114.417969 247.101562 115.910156 247.726562 117.417969 C 248.351562 118.925781 248.9375 120.449219 249.488281 121.984375 C 250.039062 123.523438 250.550781 125.070312 251.023438 126.632812 C 251.5 128.195312 251.933594 129.769531 252.332031 131.351562 C 252.726562 132.933594 253.085938 134.527344 253.402344 136.128906 C 253.722656 137.730469 254 139.335938 254.238281 140.949219 C 254.480469 142.566406 254.679688 144.183594 254.839844 145.808594 C 255 147.433594 255.117188 149.0625 255.199219 150.691406 C 255.277344 152.320312 255.320312 153.953125 255.320312 155.585938 C 255.320312 157.21875 255.277344 158.847656 255.199219 160.480469 C 255.117188 162.109375 255 163.738281 254.839844 165.359375 C 254.679688 166.984375 254.480469 168.605469 254.238281 170.21875 C 254 171.832031 253.722656 173.441406 253.402344 175.042969 C 253.085938 176.644531 252.726562 178.234375 252.332031 179.820312 C 251.933594 181.402344 251.5 182.972656 251.023438 184.535156 C 250.550781 186.097656 250.039062 187.648438 249.488281 189.183594 C 248.9375 190.722656 248.351562 192.242188 247.726562 193.75 C 247.101562 195.257812 246.441406 196.75 245.742188 198.226562 C 245.046875 199.703125 244.3125 201.160156 243.542969 202.597656 C 242.773438 204.039062 241.96875 205.457031 241.128906 206.859375 C 240.289062 208.257812 239.417969 209.636719 238.511719 210.996094 C 237.605469 212.351562 236.664062 213.683594 235.691406 214.996094 C 234.71875 216.308594 233.714844 217.59375 232.679688 218.855469 C 231.644531 220.117188 230.578125 221.351562 229.484375 222.5625 C 228.386719 223.773438 227.261719 224.953125 226.109375 226.109375 C 224.953125 227.261719 223.773438 228.386719 222.5625 229.484375 C 221.351562 230.578125 220.117188 231.644531 218.855469 232.679688 C 217.59375 233.714844 216.308594 234.71875 214.996094 235.691406 C 213.6875 236.664062 212.351562 237.605469 210.996094 238.511719 C 209.636719 239.417969 208.257812 240.289062 206.859375 241.128906 C 205.457031 241.96875 204.039062 242.773438 202.597656 243.542969 C 201.160156 244.3125 199.703125 245.046875 198.226562 245.742188 C 196.75 246.441406 195.257812 247.101562 193.75 247.726562 C 192.242188 248.351562 190.722656 248.9375 189.183594 249.488281 C 187.648438 250.039062 186.097656 250.550781 184.535156 251.023438 C 182.972656 251.5 181.402344 251.933594 179.820312 252.332031 C 178.234375 252.726562 176.644531 253.085938 175.042969 253.402344 C 173.441406 253.722656 171.832031 254 170.21875 254.238281 C 168.605469 254.480469 166.984375 254.679688 165.359375 254.839844 C 163.738281 255 162.109375 255.117188 160.480469 255.199219 C 158.847656 255.277344 157.21875 255.320312 155.585938 255.320312 C 153.953125 255.316406 152.324219 255.273438 150.691406 255.195312 C 149.0625 255.113281 147.4375 254.988281 145.8125 254.828125 C 144.191406 254.667969 142.570312 254.464844 140.957031 254.222656 C 139.34375 253.984375 137.734375 253.703125 136.136719 253.382812 C 134.535156 253.0625 132.945312 252.703125 131.363281 252.308594 C 129.78125 251.910156 128.207031 251.472656 126.648438 250.996094 C 125.085938 250.523438 123.539062 250.011719 122 249.460938 C 120.464844 248.910156 118.945312 248.320312 117.4375 247.695312 C 115.929688 247.070312 114.4375 246.410156 112.964844 245.710938 C 111.488281 245.011719 110.03125 244.277344 108.59375 243.507812 C 107.15625 242.738281 105.738281 241.933594 104.335938 241.09375 C 102.9375 240.253906 101.558594 239.382812 100.203125 238.472656 C 98.847656 237.566406 97.515625 236.628906 96.203125 235.65625 C 94.894531 234.683594 93.609375 233.679688 92.347656 232.644531 C 91.085938 231.609375 89.851562 230.542969 88.640625 229.445312 C 87.433594 228.351562 86.25 227.226562 85.097656 226.074219 C 83.945312 224.917969 82.820312 223.738281 81.722656 222.527344 C 80.628906 221.320312 79.5625 220.085938 78.527344 218.824219 C 77.492188 217.5625 76.488281 216.277344 75.515625 214.964844 C 74.542969 213.65625 73.601562 212.324219 72.695312 210.964844 C 71.789062 209.609375 70.914062 208.230469 70.078125 206.832031 C 69.238281 205.433594 68.433594 204.015625 67.664062 202.574219 C 66.894531 201.136719 66.160156 199.679688 65.460938 198.207031 C 64.761719 196.730469 64.101562 195.238281 63.476562 193.734375 C 62.847656 192.226562 62.261719 190.703125 61.710938 189.167969 C 61.160156 187.632812 60.648438 186.085938 60.171875 184.523438 C 59.699219 182.960938 59.261719 181.390625 58.863281 179.808594 C 58.464844 178.226562 58.105469 176.632812 57.789062 175.035156 C 57.46875 173.433594 57.1875 171.828125 56.945312 170.214844 C 56.703125 168.597656 56.503906 166.980469 56.34375 165.355469 C 56.179688 163.734375 56.058594 162.105469 55.976562 160.476562 C 55.894531 158.847656 55.851562 157.214844 55.851562 155.585938 Z M 55.851562 155.585938 " fill-opacity="1" fill-rule="nonzero"/><g clip-path="url(#eed084f8bb)"><path fill="#000000" d="M 221.25 141.804688 L 231.859375 139.449219 C 232.25 139.359375 232.640625 139.550781 232.8125 139.914062 L 242.5 160.375 C 242.753906 160.910156 243.453125 161.03125 243.871094 160.613281 L 246.171875 158.3125 C 246.378906 158.105469 246.460938 157.828125 246.402344 157.539062 L 240.289062 128.085938 C 240.199219 127.65625 239.804688 127.367188 239.367188 127.414062 L 219.976562 129.445312 C 219.6875 129.476562 219.515625 129.773438 219.628906 130.039062 C 221.175781 133.601562 221.546875 137.550781 220.742188 141.300781 C 220.675781 141.605469 220.945312 141.875 221.25 141.804688 Z M 112.058594 275.5 L 178.339844 275.5 C 180.578125 275.5 182.40625 273.675781 182.40625 271.433594 L 182.40625 265.5625 C 182.40625 263.324219 180.578125 261.496094 178.339844 261.496094 L 112.058594 261.496094 C 109.820312 261.496094 107.996094 263.324219 107.996094 265.5625 L 107.996094 271.433594 C 107.996094 273.675781 109.820312 275.5 112.058594 275.5 Z M 123.375 255.109375 L 123.375 238.3125 C 123.375 226.304688 133.195312 216.480469 145.199219 216.480469 C 157.203125 216.480469 167.023438 226.304688 167.023438 238.3125 L 167.023438 255.109375 C 167.023438 255.34375 166.832031 255.535156 166.597656 255.535156 L 123.800781 255.535156 C 123.566406 255.535156 123.375 255.34375 123.375 255.109375 Z M 131.628906 238.3125 C 131.628906 245.785156 137.730469 251.886719 145.199219 251.886719 C 152.667969 251.886719 158.769531 245.785156 158.769531 238.3125 C 158.769531 230.84375 152.667969 224.738281 145.199219 224.738281 C 137.730469 224.738281 131.628906 230.84375 131.628906 238.3125 Z M 137.589844 238.3125 C 137.589844 242.496094 141.019531 245.925781 145.199219 245.925781 C 149.378906 245.925781 152.808594 242.496094 152.808594 238.3125 C 152.808594 234.132812 149.378906 230.699219 145.199219 230.699219 C 141.019531 230.699219 137.589844 234.132812 137.589844 238.3125 Z M 79.585938 131.691406 C 88.113281 123.160156 101.9375 123.160156 110.464844 131.691406 C 118.992188 140.21875 118.992188 154.050781 110.464844 162.582031 C 101.9375 171.109375 88.113281 171.109375 79.585938 162.582031 C 71.058594 154.050781 71.058594 140.21875 79.585938 131.691406 Z M 85.726562 137.835938 C 80.621094 142.945312 80.621094 151.324219 85.726562 156.4375 C 90.835938 161.546875 99.210938 161.546875 104.320312 156.433594 C 109.425781 151.324219 109.425781 142.945312 104.320312 137.835938 C 99.214844 132.726562 90.835938 132.726562 85.726562 137.835938 Z M 89.941406 142.050781 C 87.148438 144.84375 87.148438 149.425781 89.941406 152.222656 C 92.730469 155.015625 97.316406 155.015625 100.105469 152.222656 C 102.898438 149.425781 102.898438 144.84375 100.109375 142.050781 C 97.316406 139.257812 92.730469 139.257812 89.941406 142.050781 Z M 137.902344 76.753906 C 145.410156 69.246094 157.578125 69.246094 165.082031 76.753906 C 172.585938 84.261719 172.585938 96.433594 165.082031 103.941406 C 157.578125 111.449219 145.410156 111.449219 137.902344 103.941406 C 130.398438 96.433594 130.398438 84.261719 137.902344 76.753906 Z M 143.058594 81.910156 C 138.425781 86.546875 138.421875 94.152344 143.058594 98.785156 C 147.691406 103.421875 155.292969 103.421875 159.925781 98.785156 C 164.5625 94.152344 164.5625 86.546875 159.925781 81.910156 C 155.292969 77.273438 147.691406 77.273438 143.058594 81.910156 Z M 147.269531 86.125 C 144.953125 88.445312 144.953125 92.253906 147.269531 94.570312 C 149.589844 96.890625 153.394531 96.890625 155.714844 94.570312 C 158.035156 92.253906 158.035156 88.445312 155.714844 86.125 C 153.394531 83.804688 149.589844 83.804688 147.269531 86.125 Z M 193.875 128.5625 C 198.753906 123.683594 206.660156 123.683594 211.539062 128.5625 C 216.417969 133.441406 216.417969 141.355469 211.539062 146.238281 C 206.660156 151.117188 198.753906 151.117188 193.875 146.238281 C 188.996094 141.355469 188.996094 133.441406 193.875 128.5625 Z M 207.113281 155.949219 L 204.753906 166.5625 C 204.667969 166.953125 204.859375 167.34375 205.222656 167.515625 L 225.675781 177.207031 C 226.207031 177.460938 226.328125 178.160156 225.910156 178.578125 L 223.613281 180.878906 C 223.402344 181.089844 223.128906 181.171875 222.839844 181.109375 L 193.398438 174.996094 C 192.96875 174.910156 192.679688 174.511719 192.726562 174.074219 L 194.757812 154.675781 C 194.785156 154.386719 195.085938 154.214844 195.347656 154.328125 C 198.910156 155.875 202.859375 156.246094 206.609375 155.441406 C 206.914062 155.375 207.179688 155.644531 207.113281 155.949219 Z M 152.066406 210.613281 L 118.355469 163.265625 C 118.1875 163.03125 117.832031 163.027344 117.664062 163.265625 C 112.578125 170.398438 104.484375 174.714844 95.703125 174.929688 C 95.398438 174.9375 95.199219 175.253906 95.328125 175.53125 L 118.9375 227.273438 C 119.089844 227.605469 119.570312 227.601562 119.714844 227.265625 C 125.105469 214.902344 138.574219 208.160156 151.621094 211.273438 C 152.003906 211.367188 152.296875 210.933594 152.066406 210.613281 Z M 122.273438 138.933594 L 142.464844 114.464844 C 142.648438 114.238281 142.5625 113.902344 142.292969 113.796875 C 135.574219 111.160156 130.269531 105.71875 127.816406 98.925781 C 127.71875 98.648438 127.375 98.554688 127.148438 98.742188 L 101.988281 119.519531 C 101.71875 119.738281 101.8125 120.167969 102.148438 120.257812 C 111.347656 122.6875 118.695312 129.714844 121.539062 138.792969 C 121.640625 139.113281 122.058594 139.195312 122.273438 138.933594 Z M 163.570312 113.117188 L 184.898438 130.730469 C 185.125 130.917969 185.460938 130.832031 185.566406 130.5625 C 187.433594 125.867188 191.179688 122.121094 195.871094 120.25 C 196.140625 120.144531 196.226562 119.808594 196.042969 119.585938 L 176.695312 96.136719 C 176.472656 95.867188 176.035156 95.96875 175.953125 96.308594 C 174.292969 103.167969 169.800781 109.019531 163.632812 112.417969 C 163.371094 112.5625 163.335938 112.925781 163.570312 113.117188 Z M 163.570312 113.117188 " fill-opacity="1" fill-rule="evenodd"/></g></svg>